<svg width="30" height="30" viewBox="0 0 30 30" fill="none" xmlns="http://www.w3.org/2000/svg">
<path d="M30 14.9997C30 23.4032 23.0872 30.1945 14.6377 29.9957C6.68143 29.808 0.191981 23.3186 0.00425474 15.3623C-0.194514 6.91275 6.59677 0 15.0003 0C15.2027 0 15.4033 0.00368091 15.604 0.0128832C16.3346 0.0423305 16.5739 0.995687 15.9518 1.38034C13.2463 3.05884 11.4758 6.10295 11.6028 9.54828C11.7776 14.3353 15.6849 18.2334 20.472 18.4009C23.9118 18.5205 26.9467 16.7518 28.6215 14.0519C29.0062 13.4316 29.9595 13.6709 29.989 14.3997C29.9963 14.6003 30 14.8009 30 15.0016V14.9997Z" fill="url(#paint0_linear_41_457)"/>
<defs>
<linearGradient id="paint0_linear_41_457" x1="0.000572405" y1="2.11072e-07" x2="30" y2="29.9994" gradientUnits="userSpaceOnUse">
<stop stop-color="#FCEABB"/>
<stop offset="0.654" stop-color="#F9C22D"/>
</linearGradient>
</defs>
</svg>
