<svg width="30" height="31" viewBox="0 0 30 31" fill="none" xmlns="http://www.w3.org/2000/svg">
<path d="M30 14.0165C30 17.4421 27.2471 20.2174 23.8492 20.2174H6.15078C2.7529 20.2174 0 17.4399 0 14.0165C0 10.5931 2.7529 7.81567 6.15078 7.81567C6.23621 7.81567 6.32377 7.81567 6.4092 7.82213C7.43646 3.33942 11.4217 0 16.1778 0C20.934 0 25.1499 3.5375 26.0298 8.21614C28.3512 9.10321 30 11.3639 30 14.0165Z" fill="url(#paint0_linear_41_454)"/>
<path d="M18.5073 21.5652H17.011C16.7596 21.5652 16.5473 21.7519 16.5151 22.0012L16.0729 25.4237C16.0342 25.7228 16.2672 25.9878 16.5688 25.9878H16.9286C17.2047 25.9878 17.4286 26.2117 17.4286 26.4878V28.1602C17.4286 28.7197 18.2074 28.8569 18.3985 28.331L19.7562 24.5947C19.8747 24.2686 19.6332 23.9239 19.2863 23.9239H19.207C18.8832 23.9239 18.6448 23.6209 18.7211 23.3062L18.9932 22.183C19.0694 21.8683 18.831 21.5652 18.5073 21.5652Z" fill="#F9C22D"/>
<path d="M12.5073 21.5652H11.011C10.7596 21.5652 10.5473 21.7519 10.5151 22.0012L10.0729 25.4237C10.0342 25.7228 10.2672 25.9878 10.5688 25.9878H10.9286C11.2047 25.9878 11.4286 26.2117 11.4286 26.4878V28.1602C11.4286 28.7197 12.2074 28.8569 12.3985 28.331L13.7562 24.5947C13.8747 24.2686 13.6332 23.9239 13.2863 23.9239H13.207C12.8832 23.9239 12.6448 23.6209 12.7211 23.3062L12.9932 22.183C13.0694 21.8683 12.831 21.5652 12.5073 21.5652Z" fill="#F9C22D"/>
<defs>
<linearGradient id="paint0_linear_41_454" x1="30" y1="20.2174" x2="-0.198752" y2="0.301369" gradientUnits="userSpaceOnUse">
<stop/>
<stop offset="0.21" stop-color="#1C1C1C"/>
<stop offset="0.59" stop-color="#434343"/>
<stop offset="1" stop-color="#434343"/>
</linearGradient>
</defs>
</svg>
