<svg width="10" height="16" viewBox="0 0 10 16" fill="none" xmlns="http://www.w3.org/2000/svg">
<g clip-path="url(#clip0_117_765)">
<path d="M7.03 7.67V2.75C7.03 1.65 6.14 0.75 5.03 0.75C3.93 0.75 3.03 1.64 3.03 2.75V7.67C3.03 7.82 2.95 7.95 2.83 8.04C1.66 8.89 1.01 10.4 1.43 12.03C1.76 13.32 2.82 14.36 4.12 14.66C6.57 15.24 8.75 13.39 8.75 11.04C8.75 9.8 8.14 8.72 7.22 8.04C7.1 7.95 7.02 7.82 7.02 7.67H7.03Z" stroke="#252525" stroke-width="1.5" stroke-miterlimit="10"/>
<path d="M5.92999 9.21998C5.78999 9.14998 5.68999 9.01998 5.68999 8.85998V6.89998C5.68999 6.52998 5.38999 6.22998 5.01999 6.22998C4.64999 6.22998 4.34999 6.52998 4.34999 6.89998V8.85998C4.34999 9.01998 4.24999 9.14998 4.10999 9.21998C3.45999 9.54998 3.01999 10.22 3.01999 10.99C3.01999 12.09 3.91999 12.99 5.01999 12.99C6.11999 12.99 7.01999 12.09 7.01999 10.99C7.01999 10.21 6.56999 9.54998 5.92999 9.21998Z" fill="#252525"/>
</g>
<defs>
<clipPath id="clip0_117_765">
<rect width="8.95" height="15.52" fill="white" transform="translate(0.549988)"/>
</clipPath>
</defs>
</svg>
