<svg width="19" height="16" viewBox="0 0 19 16" fill="none" xmlns="http://www.w3.org/2000/svg">
<g clip-path="url(#clip0_117_762)">
<path d="M10.9 5.01504C10.36 5.64504 9.58 6.01504 8.75 6.01504H0.75C0.33 6.01504 0 5.67504 0 5.26504C0 4.85504 0.33 4.51504 0.75 4.51504H8.75C9.09 4.51504 9.43 4.37504 9.66 4.14504C9.9 3.90504 10.04 3.58504 10.04 3.24504C10.04 2.90504 9.9 2.57504 9.66 2.33504C9.42 2.09504 9.1 1.96504 8.76 1.96504C8.42 1.96504 8.1 2.09504 7.86 2.33504C7.71 2.48504 7.52 2.56504 7.31 2.56504C7.1 2.56504 6.91 2.48504 6.76 2.33504C6.62 2.19504 6.54 1.99504 6.54 1.79504C6.54 1.58504 6.62 1.38504 6.76 1.24504C7.3 0.705039 8 0.415039 8.75 0.415039C8.93 0.415039 9.11 0.435039 9.29 0.465039C10.4 0.675039 11.3 1.59504 11.5 2.69504C11.65 3.54504 11.44 4.36504 10.9 5.01504Z" fill="#252525"/>
<path d="M14.84 12.825C14.64 13.935 13.74 14.845 12.63 15.055C12.45 15.085 12.27 15.105 12.09 15.105C11.34 15.105 10.64 14.815 10.1 14.275C9.95999 14.135 9.87999 13.935 9.87999 13.735C9.87999 13.525 9.95999 13.325 10.1 13.185C10.25 13.035 10.44 12.955 10.65 12.955C10.86 12.955 11.05 13.035 11.2 13.185C11.44 13.425 11.76 13.555 12.1 13.555C12.44 13.555 12.76 13.425 13 13.185C13.24 12.945 13.38 12.625 13.38 12.285C13.38 11.945 13.24 11.615 13 11.375C12.77 11.145 12.43 11.005 12.09 11.005H5.76999C5.34999 11.005 5.01999 10.665 5.01999 10.255C5.01999 9.845 5.34999 9.505 5.76999 9.505H12.09C12.92 9.505 13.7 9.875 14.24 10.505C14.78 11.155 14.99 11.975 14.84 12.825Z" fill="#252525"/>
<path d="M17.89 7.50503C17.36 8.13503 16.57 8.50503 15.74 8.50503H0.75C0.33 8.50503 0 8.16503 0 7.75503C0 7.34503 0.33 7.00503 0.75 7.00503H15.74C16.09 7.00503 16.42 6.86503 16.66 6.63503C16.9 6.39503 17.03 6.07503 17.03 5.73503C17.03 5.39503 16.9 5.06503 16.66 4.82503C16.42 4.58503 16.1 4.45503 15.76 4.45503C15.42 4.45503 15.1 4.58503 14.86 4.82503C14.71 4.97503 14.51 5.05503 14.31 5.05503C14.1 5.05503 13.91 4.97503 13.76 4.82503C13.61 4.68503 13.53 4.48503 13.53 4.28503C13.53 4.07503 13.61 3.87503 13.76 3.73503C14.29 3.19503 15 2.90503 15.74 2.90503C15.92 2.90503 16.11 2.92503 16.29 2.95503C17.39 3.16503 18.3 4.08503 18.5 5.18503C18.65 6.03503 18.43 6.85503 17.89 7.50503Z" fill="#252525"/>
<path d="M3.23 9.505H0.75C0.335786 9.505 0 9.84079 0 10.255C0 10.6692 0.335786 11.005 0.75 11.005H3.23C3.64421 11.005 3.98 10.6692 3.98 10.255C3.98 9.84079 3.64421 9.505 3.23 9.505Z" fill="#252525"/>
</g>
<defs>
<clipPath id="clip0_117_762">
<rect width="18.55" height="14.69" fill="white" transform="translate(0 0.415039)"/>
</clipPath>
</defs>
</svg>
